<svg width="24" height="25" viewBox="0 0 24 25" fill="none" xmlns="http://www.w3.org/2000/svg">
<rect y="0.666687" width="24" height="24" rx="12" fill="#DFE0E0"/>
<path fill-rule="evenodd" clip-rule="evenodd" d="M18.6668 12.6667C18.6668 16.3486 15.6821 19.3334 12.0002 19.3334C8.31826 19.3334 5.3335 16.3486 5.3335 12.6667C5.3335 8.9848 8.31826 6.00003 12.0002 6.00003C15.6821 6.00003 18.6668 8.9848 18.6668 12.6667ZM15.4025 9.431C15.5327 9.56116 15.5327 9.77223 15.4025 9.9024L9.23586 16.0691C9.1057 16.1992 8.89463 16.1992 8.76446 16.0691C8.6343 15.9389 8.6343 15.7278 8.76446 15.5977L14.9311 9.431C15.0613 9.30083 15.2724 9.30083 15.4025 9.431Z" fill="url(#paint0_linear_82_2593)"/>
<defs>
<linearGradient id="paint0_linear_82_2593" x1="5.3335" y1="6.00003" x2="18.6668" y2="19.3334" gradientUnits="userSpaceOnUse">
<stop stop-color="#9FA1A3"/>
<stop offset="1" stop-color="#5F6265"/>
</linearGradient>
</defs>
</svg>
