<svg width="24" height="24" viewBox="0 0 24 24" fill="none" xmlns="http://www.w3.org/2000/svg">
<rect width="24" height="24" rx="12" fill="#CEEEE3"/>
<path d="M12.0002 5.33333C8.32683 5.33333 5.3335 8.32666 5.3335 12C5.3335 15.6733 8.32683 18.6667 12.0002 18.6667C15.6735 18.6667 18.6668 15.6733 18.6668 12C18.6668 8.32666 15.6735 5.33333 12.0002 5.33333ZM15.1868 10.4667L11.4068 14.2467C11.3135 14.34 11.1868 14.3933 11.0535 14.3933C10.9202 14.3933 10.7935 14.34 10.7002 14.2467L8.8135 12.36C8.62016 12.1667 8.62016 11.8467 8.8135 11.6533C9.00683 11.46 9.32683 11.46 9.52016 11.6533L11.0535 13.1867L14.4802 9.76C14.6735 9.56666 14.9935 9.56666 15.1868 9.76C15.3802 9.95333 15.3802 10.2667 15.1868 10.4667Z" fill="url(#paint0_linear_82_2640)"/>
<defs>
<linearGradient id="paint0_linear_82_2640" x1="5.3335" y1="5.33333" x2="18.6668" y2="18.6667" gradientUnits="userSpaceOnUse">
<stop stop-color="#6CCDAB"/>
<stop offset="1" stop-color="#0BAC74"/>
</linearGradient>
</defs>
</svg>
